<svg xmlns="http://www.w3.org/2000/svg" version="1.1" xmlns:xlink="http://www.w3.org/1999/xlink" xmlns:svgjs="http://svgjs.com/svgjs" width="1440" height="560" preserveAspectRatio="none" viewBox="0 0 1440 560"><g mask="url(&quot;#SvgjsMask5464&quot;)" fill="none"><rect width="1440" height="560" x="0" y="0" fill="url(#SvgjsRadialGradient5465)"></rect><path d="M346.7599205468051 267.27900455800955L253.3814840516824 354.3558053096591 340.45828480333194 447.7342418047818 433.8367212984547 360.6574410531323z" fill="rgba(0, 0, 136, 0.44)" class="triangle-float2"></path><path d="M854.6055848734268 301.6505518065653L758.1222669398896 228.94515681039283 685.4168719437172 325.42847474393 781.9001898772543 398.13386974010245z" fill="rgba(0, 0, 136, 0.44)" class="triangle-float2"></path><path d="M165.11299870344354 348.88123977017716L168.91343620052675 240.05094901781268 60.083145448162256 236.2505115207295 56.28270795107906 345.080802273094z" fill="rgba(0, 0, 136, 0.44)" class="triangle-float3"></path><path d="M1324.9007193016-44.37014422976935L1220.4190459170052 4.350460206316519 1269.139650353091 108.83213359091138 1373.621323737686 60.111529154825504z" fill="rgba(0, 0, 136, 0.44)" class="triangle-float1"></path><path d="M669.370583505979 223.91217362035906L800.3146913942179 266.45849337889456 842.8610111527535 135.51438549065557 711.9169032645144 92.9680657321201z" fill="rgba(0, 0, 136, 0.44)" class="triangle-float1"></path><path d="M893.8908369343144 477.04822368727946L883.2377681265579 324.70224205776606 730.8917864970444 335.35531086552254 741.544855304801 487.701292495036z" fill="rgba(0, 0, 136, 0.44)" class="triangle-float2"></path><path d="M383.26264110150885 386.3893102651761L375.18445564760873 501.9127444012268 490.7078897836594 509.9909298551269 498.78607523755954 394.4674957190762z" fill="rgba(0, 0, 136, 0.44)" class="triangle-float2"></path><path d="M237.37497971597418 540.9917451960278L257.1009928044496 439.5102053426284 155.61945295105028 419.78419225415297 135.89343986257484 521.2657321075523z" fill="rgba(0, 0, 136, 0.44)" class="triangle-float3"></path><path d="M400.523770184806 144.443273810184L478.70430639738584 3.4018529499630006 337.66288553716487-74.77868326261688 259.482349324585 66.26273759760413z" fill="rgba(0, 0, 136, 0.44)" class="triangle-float2"></path><path d="M531.3647656430754 660.9358290573041L576.9030390337963 502.12499668692794 418.09220666342014 456.58672329620714 372.5539332726993 615.3975556665832z" fill="rgba(0, 0, 136, 0.44)" class="triangle-float3"></path><path d="M1466.2606500354673 556.4963697494883L1441.3078888461703 448.4140866612744 1333.2256057579564 473.3668478505714 1358.1783669472534 581.4491309387853z" fill="rgba(0, 0, 136, 0.44)" class="triangle-float2"></path><path d="M1064.131827582818 109.72098453717135L1014.0659317328875 247.27590286962212 1151.6208500653383 297.34179871955257 1201.6867459152688 159.7868803871018z" fill="rgba(0, 0, 136, 0.44)" class="triangle-float1"></path><path d="M915.6545839271259 551.2951629559395L1005.9123678910634 554.4470342245802 1009.064239159704 464.1892502606428 918.8064551957666 461.0373789920021z" fill="rgba(0, 0, 136, 0.44)" class="triangle-float1"></path><path d="M426.64641647292893 444.03147445361077L299.9161706209001 473.28945707436657 329.17415324165586 600.0197029263954 455.90439909368473 570.7617203056396z" fill="rgba(0, 0, 136, 0.44)" class="triangle-float1"></path><path d="M1035.938093358119 97.78536402661805L947.4464934053974 137.1843627344172 986.8454921131965 225.67596268713874 1075.3370920659181 186.2769639793396z" fill="rgba(0, 0, 136, 0.44)" class="triangle-float2"></path></g><defs><mask id="SvgjsMask5464"><rect width="1440" height="560" fill="#ffffff"></rect></mask><radialGradient cx="50%" cy="50%" r="772.53" gradientUnits="userSpaceOnUse" id="SvgjsRadialGradient5465"><stop stop-color="rgba(255, 255, 255, 1)" offset="0.51"></stop><stop stop-color="rgba(121, 87, 213, 1)" offset="1"></stop></radialGradient><style>
            @keyframes float1 {
                0%{transform: translate(0, 0)}
                50%{transform: translate(-10px, 0)}
                100%{transform: translate(0, 0)}
            }

            .triangle-float1 {
                animation: float1 5s infinite;
            }

            @keyframes float2 {
                0%{transform: translate(0, 0)}
                50%{transform: translate(-5px, -5px)}
                100%{transform: translate(0, 0)}
            }

            .triangle-float2 {
                animation: float2 4s infinite;
            }

            @keyframes float3 {
                0%{transform: translate(0, 0)}
                50%{transform: translate(0, -10px)}
                100%{transform: translate(0, 0)}
            }

            .triangle-float3 {
                animation: float3 6s infinite;
            }
        </style></defs></svg>